<?xml version="1.0" encoding="UTF-8"?>
<!DOCTYPE svg PUBLIC "-//W3C//DTD SVG 1.1//EN" "http://www.w3.org/Graphics/SVG/1.1/DTD/svg11.dtd">
<!-- Creator: CorelDRAW -->
<svg xmlns="http://www.w3.org/2000/svg" xml:space="preserve" width="67.7332mm" height="67.7332mm" version="1.1" style="shape-rendering:geometricPrecision; text-rendering:geometricPrecision; image-rendering:optimizeQuality; fill-rule:evenodd; clip-rule:evenodd"
viewBox="0 0 6773 6773"
 xmlns:xlink="http://www.w3.org/1999/xlink">
 <defs>
  <style type="text/css">
   <![CDATA[
    .fil4 {fill:#292929}
    .fil0 {fill:#333333}
    .fil2 {fill:#4D4D4D}
    .fil3 {fill:#B8B8B8}
    .fil1 {fill:#CCCCCC}
   ]]>
  </style>
 </defs>
 <g id="Layer_x0020_1">
  <metadata id="CorelCorpID_0Corel-Layer"/>
  <g id="_409918032">
   <path class="fil0" d="M5297 4208l-297 0c-142,0 -257,-115 -257,-256l0 -1131c0,-141 115,-257 257,-257l297 0c142,0 257,116 257,257l0 1131c0,141 -115,256 -257,256z"/>
   <path class="fil0" d="M1774 4208l-298 0c-142,0 -257,-115 -257,-256l0 -1131c0,-141 115,-257 257,-257l298 0c141,0 257,116 257,257l0 1131c0,141 -116,256 -257,256z"/>
   <path class="fil1" d="M2638 3792c-14,0 -28,-5 -40,-13 -18,-13 -28,-33 -28,-55l0 -675c0,-22 10,-42 28,-55 17,-13 40,-17 61,-10 483,155 973,155 1456,0 20,-7 43,-3 61,10 17,13 28,33 28,55l0 675c0,22 -11,43 -28,55 -18,13 -40,17 -61,10 -483,-154 -973,-154 -1456,0 -7,2 -14,3 -21,3z"/>
   <path class="fil2" d="M4622 4502l-298 0c-142,0 -257,-115 -257,-257l0 -1717c0,-141 115,-256 257,-256l298 0c142,0 257,115 257,256l0 1717c0,141 -115,257 -257,257z"/>
   <path class="fil2" d="M2449 4502l-298 0c-141,0 -256,-115 -256,-257l0 -1717c0,-141 115,-256 256,-256l298 0c142,0 257,115 257,256l0 1717c0,141 -115,257 -257,257z"/>
   <path class="fil3" d="M4067 3575c-452,-135 -909,-135 -1361,0l0 200c452,-135 909,-135 1361,0l0 -200z"/>
  </g>
  <path id="_341084808" class="fil2" d="M3387 0c1870,0 3386,1516 3386,3387 0,1870 -1516,3386 -3386,3386 -1871,0 -3387,-1516 -3387,-3386 0,-1871 1516,-3387 3387,-3387zm0 287c1712,0 3099,1388 3099,3100 0,1712 -1387,3100 -3099,3100 -1712,0 -3100,-1388 -3100,-3100 0,-1712 1388,-3100 3100,-3100z"/>
  <path id="_341084880" class="fil4" d="M3387 0c1870,0 3386,1516 3386,3387 0,1870 -1516,3386 -3386,3386 -1871,0 -3387,-1516 -3387,-3386 0,-1871 1516,-3387 3387,-3387zm0 101c1814,0 3285,1471 3285,3286 0,1814 -1471,3285 -3285,3285 -1815,0 -3286,-1471 -3286,-3285 0,-1815 1471,-3286 3286,-3286z"/>
 </g>
</svg>
